# xmcd CD database file
#
# Track frame offsets:
#	183
#	19003
#	38885
#	57353
#	70428
#	83580
#	105020
#	121460
#	140630
#	160500
#	179833
#	201068
#	217183
#	231580
#	251070
#
# Disc length: 3636 seconds
#
# Revision: 0
# Processed by: cddbd v1.4PL0 Copyright (c) Steve Scherf et al.
# Submitted via: CDex 1.50beta10
#
DISCID=d90e320f
DTITLE=Sidney Bechet - Compilation
DYEAR=1900
DGENRE=Jazz
TTITLE0=Summertime
TTITLE1=Blues For Tommy Ladnier
TTITLE2=Lonesome Blues
TTITLE3=Saturday Night Blues
TTITLE4=Bechet's Steady Rider
TTITLE5=Saint Louis Blues
TTITLE6=Muskrat Ramble
TTITLE7=Jazz Me Blues
TTITLE8=Blues Horizon
TTITLE9=Weary BLues
TTITLE10=Jackass Blues
TTITLE11=High Society
TTITLE12=Porto Rico
TTITLE13=Milenberg Joys
TTITLE14=Days Beyond Recall
EXTD=
EXTT0=
EXTT1=
EXTT2=
EXTT3=
EXTT4=
EXTT5=
EXTT6=
EXTT7=
EXTT8=
EXTT9=
EXTT10=
EXTT11=
EXTT12=
EXTT13=
EXTT14=
PLAYORDER=
